<svg viewBox="0 0 50 50" fill="none" xmlns="http://www.w3.org/2000/svg">
<mask id="mask0_704_193" style="mask-type:alpha" maskUnits="userSpaceOnUse" x="0" y="0" width="50" height="50">
<path d="M25 0C11.1929 0 0 11.1929 0 25H25V0Z" fill="#56CCF2"/>
<path d="M25 50C18.0964 50 12.5 44.4036 12.5 37.5C12.5 30.5964 18.0964 25 25 25V50Z" fill="#FFD428"/>
<path d="M25 37.75C25 41.2018 27.7982 44 31.25 44C34.7018 44 37.5 41.2018 37.5 37.75V37.25C37.5 33.7982 34.7018 31 31.25 31C27.7982 31 25 33.7982 25 37.25V37.75Z" fill="#FFB76B"/>
<path d="M50 12.5C43.0964 12.5 37.5 6.90356 37.5 0H50V12.5Z" fill="#FFC990"/>
<path d="M12.5 44H0V32.5H12.5V44Z" fill="#BCED09"/>
<path d="M37.5 44C44.4036 44 50 38.4036 50 31.5C50 24.5964 44.4036 19 37.5 19V44Z" fill="#27AE60"/>
<path d="M37.5 25C30.5964 25 25 19.4036 25 12.5C25 5.59644 30.5964 0 37.5 0V25Z" fill="#B5C2F7"/>
<path d="M0 32.5V31.25C0 27.7982 2.79822 25 6.25 25C9.70178 25 12.5 27.7982 12.5 31.25V32.5H0Z" fill="#FF715B"/>
</mask>
<g mask="url(#mask0_704_193)">
<rect width="50" height="50" fill="#77A1FF"/>
<g style="mix-blend-mode:luminosity" opacity="0.5">
<path d="M18.75 0C4.94288 0 -6.25 11.1929 -6.25 25H18.75V0Z" fill="#27AE60"/>
<path d="M18.75 50C11.8464 50 6.25 44.4036 6.25 37.5C6.25 30.5964 11.8464 25 18.75 25V50Z" fill="#FFD428"/>
<path d="M18.75 37.75C18.75 41.2018 21.5482 44 25 44C28.4518 44 31.25 41.2018 31.25 37.75V37.25C31.25 33.7982 28.4518 31 25 31C21.5482 31 18.75 33.7982 18.75 37.25V37.75Z" fill="#FFB76B"/>
<path d="M43.75 12.5C36.8464 12.5 31.25 6.90356 31.25 0H43.75V12.5Z" fill="#FFC990"/>
<path d="M6.25 44H-6.25V32.5H6.25V44Z" fill="#FF715B"/>
<path d="M31.25 44C38.1536 44 43.75 38.4036 43.75 31.5C43.75 24.5964 38.1536 19 31.25 19V44Z" fill="#27AE60"/>
<path d="M31.25 25C24.3464 25 18.75 19.4036 18.75 12.5C18.75 5.59644 24.3464 0 31.25 0V25Z" fill="#FF715B"/>
<path d="M-6.25 32.5V31.25C-6.25 27.7982 -3.45178 25 0 25C3.45178 25 6.25 27.7982 6.25 31.25V32.5H-6.25Z" fill="#FFD428"/>
</g>
<path d="M25 0V0C11.1929 0 1.52588e-05 11.1929 1.52588e-05 25V25H25V0Z" fill="#2F52E0"/>
<path d="M25 50V50C18.0964 50 12.5 44.4036 12.5 37.5V37.5C12.5 30.5964 18.0964 25 25 25V25V50Z" fill="#2F52E0"/>
<rect width="12.5" height="13" rx="6.25" transform="matrix(1 0 0 -1 25 43.9998)" fill="#2F52E0"/>
<path d="M50 12.5V12.5C43.0964 12.5 37.5 6.90357 37.5 7.62939e-06V7.62939e-06H50V12.5Z" fill="#2F52E0"/>
<path d="M12.5 43.9998H7.62939e-06V32.4998H12.5V43.9998Z" fill="#2F52E0"/>
<path d="M37.5 43.9998V43.9998C44.4036 43.9998 50 38.4033 50 31.4998V31.4998C50 24.5962 44.4036 18.9998 37.5 18.9998V18.9998V43.9998Z" fill="#2F52E0"/>
<path d="M37.5 25V25C30.5964 25 25 19.4036 25 12.5V12.5C25 5.59645 30.5964 1.52588e-05 37.5 1.52588e-05V1.52588e-05V25Z" fill="#2F52E0"/>
<path d="M0 32.5L0 31.25C0 27.7982 2.79822 25 6.25 25V25C9.70178 25 12.5 27.7982 12.5 31.25V32.5H0Z" fill="#2F52E0"/>
</g>
</svg>
