<svg width="209" height="43" viewBox="0 0 209 43" fill="none" xmlns="http://www.w3.org/2000/svg">
  <path d="M42.9064 25.9148C45.7097 28.6892 44.3471 33.4654 40.5019 34.3432L6.91305 42.0104C3.20652 42.8564 -0.0508366 39.42 0.992165 35.764L10.0935 3.86134C11.1365 0.205338 15.7167 -0.995119 18.4189 1.67927L42.9064 25.9148Z" fill="#FFF"/>
  <path d="M28.976 24.024H22.688L21.68 27H17.384L23.48 10.152H28.232L34.328 27H29.984L28.976 24.024ZM27.92 20.856L25.832 14.688L23.768 20.856H27.92ZM44.3433 13.464C45.9113 13.464 47.1593 13.976 48.0873 15C49.0313 16.008 49.5033 17.4 49.5033 19.176V27H45.4233V19.728C45.4233 18.832 45.1913 18.136 44.7273 17.64C44.2633 17.144 43.6393 16.896 42.8553 16.896C42.0713 16.896 41.4473 17.144 40.9833 17.64C40.5193 18.136 40.2873 18.832 40.2873 19.728V27H36.1833V13.608H40.2873V15.384C40.7033 14.792 41.2633 14.328 41.9673 13.992C42.6713 13.64 43.4633 13.464 44.3433 13.464ZM51.5392 20.28C51.5392 18.904 51.7952 17.696 52.3072 16.656C52.8352 15.616 53.5472 14.816 54.4432 14.256C55.3392 13.696 56.3392 13.416 57.4432 13.416C58.3232 13.416 59.1232 13.6 59.8432 13.968C60.5792 14.336 61.1552 14.832 61.5712 15.456V9.24H65.6752V27H61.5712V25.08C61.1872 25.72 60.6352 26.232 59.9152 26.616C59.2112 27 58.3872 27.192 57.4432 27.192C56.3392 27.192 55.3392 26.912 54.4432 26.352C53.5472 25.776 52.8352 24.968 52.3072 23.928C51.7952 22.872 51.5392 21.656 51.5392 20.28ZM61.5712 20.304C61.5712 19.28 61.2832 18.472 60.7072 17.88C60.1472 17.288 59.4592 16.992 58.6432 16.992C57.8272 16.992 57.1312 17.288 56.5552 17.88C55.9952 18.456 55.7152 19.256 55.7152 20.28C55.7152 21.304 55.9952 22.12 56.5552 22.728C57.1312 23.32 57.8272 23.616 58.6432 23.616C59.4592 23.616 60.1472 23.32 60.7072 22.728C61.2832 22.136 61.5712 21.328 61.5712 20.304ZM72.7483 15.84C73.2283 15.104 73.8283 14.528 74.5483 14.112C75.2683 13.68 76.0683 13.464 76.9483 13.464V17.808H75.8203C74.7963 17.808 74.0283 18.032 73.5163 18.48C73.0043 18.912 72.7483 19.68 72.7483 20.784V27H68.6443V13.608H72.7483V15.84ZM91.5339 20.088C91.5339 20.472 91.5099 20.872 91.4619 21.288H82.1739C82.2379 22.12 82.5019 22.76 82.9659 23.208C83.4459 23.64 84.0299 23.856 84.7179 23.856C85.7419 23.856 86.4539 23.424 86.8539 22.56H91.2219C90.9979 23.44 90.5899 24.232 89.9979 24.936C89.4219 25.64 88.6939 26.192 87.8139 26.592C86.9339 26.992 85.9499 27.192 84.8619 27.192C83.5499 27.192 82.3819 26.912 81.3579 26.352C80.3339 25.792 79.5339 24.992 78.9579 23.952C78.3819 22.912 78.0939 21.696 78.0939 20.304C78.0939 18.912 78.3739 17.696 78.9339 16.656C79.5099 15.616 80.3099 14.816 81.3339 14.256C82.3579 13.696 83.5339 13.416 84.8619 13.416C86.1579 13.416 87.3099 13.688 88.3179 14.232C89.3259 14.776 90.1099 15.552 90.6699 16.56C91.2459 17.568 91.5339 18.744 91.5339 20.088ZM87.3339 19.008C87.3339 18.304 87.0939 17.744 86.6139 17.328C86.1339 16.912 85.5339 16.704 84.8139 16.704C84.1259 16.704 83.5419 16.904 83.0619 17.304C82.5979 17.704 82.3099 18.272 82.1979 19.008H87.3339ZM92.8829 20.28C92.8829 18.904 93.1389 17.696 93.6509 16.656C94.1789 15.616 94.8909 14.816 95.7869 14.256C96.6829 13.696 97.6829 13.416 98.7869 13.416C99.7309 13.416 100.555 13.608 101.259 13.992C101.979 14.376 102.531 14.88 102.915 15.504V13.608H107.019V27H102.915V25.104C102.515 25.728 101.955 26.232 101.235 26.616C100.531 27 99.7069 27.192 98.7629 27.192C97.6749 27.192 96.6829 26.912 95.7869 26.352C94.8909 25.776 94.1789 24.968 93.6509 23.928C93.1389 22.872 92.8829 21.656 92.8829 20.28ZM102.915 20.304C102.915 19.28 102.627 18.472 102.051 17.88C101.491 17.288 100.803 16.992 99.9869 16.992C99.1709 16.992 98.4749 17.288 97.8989 17.88C97.3389 18.456 97.0589 19.256 97.0589 20.28C97.0589 21.304 97.3389 22.12 97.8989 22.728C98.4749 23.32 99.1709 23.616 99.9869 23.616C100.803 23.616 101.491 23.32 102.051 22.728C102.627 22.136 102.915 21.328 102.915 20.304ZM121.17 27.168C119.938 27.168 118.834 26.968 117.858 26.568C116.882 26.168 116.098 25.576 115.506 24.792C114.93 24.008 114.626 23.064 114.594 21.96H118.962C119.026 22.584 119.242 23.064 119.61 23.4C119.978 23.72 120.458 23.88 121.05 23.88C121.658 23.88 122.138 23.744 122.49 23.472C122.842 23.184 123.018 22.792 123.018 22.296C123.018 21.88 122.874 21.536 122.586 21.264C122.314 20.992 121.97 20.768 121.554 20.592C121.154 20.416 120.578 20.216 119.826 19.992C118.738 19.656 117.85 19.32 117.162 18.984C116.474 18.648 115.882 18.152 115.386 17.496C114.89 16.84 114.642 15.984 114.642 14.928C114.642 13.36 115.21 12.136 116.346 11.256C117.482 10.36 118.962 9.912 120.786 9.912C122.642 9.912 124.138 10.36 125.274 11.256C126.41 12.136 127.018 13.368 127.098 14.952H122.658C122.626 14.408 122.426 13.984 122.058 13.68C121.69 13.36 121.218 13.2 120.642 13.2C120.146 13.2 119.746 13.336 119.442 13.608C119.138 13.864 118.986 14.24 118.986 14.736C118.986 15.28 119.242 15.704 119.754 16.008C120.266 16.312 121.066 16.64 122.154 16.992C123.242 17.36 124.122 17.712 124.794 18.048C125.482 18.384 126.074 18.872 126.57 19.512C127.066 20.152 127.314 20.976 127.314 21.984C127.314 22.944 127.066 23.816 126.57 24.6C126.09 25.384 125.386 26.008 124.458 26.472C123.53 26.936 122.434 27.168 121.17 27.168ZM137.304 23.52V27H135.216C133.728 27 132.568 26.64 131.736 25.92C130.904 25.184 130.488 23.992 130.488 22.344V17.016H128.856V13.608H130.488V10.344H134.592V13.608H137.28V17.016H134.592V22.392C134.592 22.792 134.688 23.08 134.88 23.256C135.072 23.432 135.392 23.52 135.84 23.52H137.304ZM145.686 27.192C144.374 27.192 143.19 26.912 142.134 26.352C141.094 25.792 140.27 24.992 139.662 23.952C139.07 22.912 138.774 21.696 138.774 20.304C138.774 18.928 139.078 17.72 139.686 16.68C140.294 15.624 141.126 14.816 142.182 14.256C143.238 13.696 144.422 13.416 145.734 13.416C147.046 13.416 148.23 13.696 149.286 14.256C150.342 14.816 151.174 15.624 151.782 16.68C152.39 17.72 152.694 18.928 152.694 20.304C152.694 21.68 152.382 22.896 151.758 23.952C151.15 24.992 150.31 25.792 149.238 26.352C148.182 26.912 146.998 27.192 145.686 27.192ZM145.686 23.64C146.47 23.64 147.134 23.352 147.678 22.776C148.238 22.2 148.518 21.376 148.518 20.304C148.518 19.232 148.246 18.408 147.702 17.832C147.174 17.256 146.518 16.968 145.734 16.968C144.934 16.968 144.27 17.256 143.742 17.832C143.214 18.392 142.95 19.216 142.95 20.304C142.95 21.376 143.206 22.2 143.718 22.776C144.246 23.352 144.902 23.64 145.686 23.64ZM158.975 15.84C159.455 15.104 160.055 14.528 160.775 14.112C161.495 13.68 162.295 13.464 163.175 13.464V17.808H162.047C161.023 17.808 160.255 18.032 159.743 18.48C159.231 18.912 158.975 19.68 158.975 20.784V27H154.871V13.608H158.975V15.84ZM164.32 20.28C164.32 18.904 164.576 17.696 165.088 16.656C165.616 15.616 166.328 14.816 167.224 14.256C168.12 13.696 169.12 13.416 170.224 13.416C171.168 13.416 171.992 13.608 172.696 13.992C173.416 14.376 173.968 14.88 174.352 15.504V13.608H178.456V27H174.352V25.104C173.952 25.728 173.392 26.232 172.672 26.616C171.968 27 171.144 27.192 170.2 27.192C169.112 27.192 168.12 26.912 167.224 26.352C166.328 25.776 165.616 24.968 165.088 23.928C164.576 22.872 164.32 21.656 164.32 20.28ZM174.352 20.304C174.352 19.28 174.064 18.472 173.488 17.88C172.928 17.288 172.24 16.992 171.424 16.992C170.608 16.992 169.912 17.288 169.336 17.88C168.776 18.456 168.496 19.256 168.496 20.28C168.496 21.304 168.776 22.12 169.336 22.728C169.912 23.32 170.608 23.616 171.424 23.616C172.24 23.616 172.928 23.32 173.488 22.728C174.064 22.136 174.352 21.328 174.352 20.304ZM180.61 20.304C180.61 18.912 180.89 17.696 181.45 16.656C182.026 15.616 182.818 14.816 183.826 14.256C184.85 13.696 186.018 13.416 187.33 13.416C189.01 13.416 190.41 13.856 191.53 14.736C192.666 15.616 193.41 16.856 193.762 18.456H189.394C189.026 17.432 188.314 16.92 187.258 16.92C186.506 16.92 185.906 17.216 185.458 17.808C185.01 18.384 184.786 19.216 184.786 20.304C184.786 21.392 185.01 22.232 185.458 22.824C185.906 23.4 186.506 23.688 187.258 23.688C188.314 23.688 189.026 23.176 189.394 22.152H193.762C193.41 23.72 192.666 24.952 191.53 25.848C190.394 26.744 188.994 27.192 187.33 27.192C186.018 27.192 184.85 26.912 183.826 26.352C182.818 25.792 182.026 24.992 181.45 23.952C180.89 22.912 180.61 21.696 180.61 20.304ZM208.581 20.088C208.581 20.472 208.557 20.872 208.509 21.288H199.221C199.285 22.12 199.549 22.76 200.013 23.208C200.493 23.64 201.077 23.856 201.765 23.856C202.789 23.856 203.501 23.424 203.901 22.56H208.269C208.045 23.44 207.637 24.232 207.045 24.936C206.469 25.64 205.741 26.192 204.861 26.592C203.981 26.992 202.997 27.192 201.909 27.192C200.597 27.192 199.429 26.912 198.405 26.352C197.381 25.792 196.581 24.992 196.005 23.952C195.429 22.912 195.141 21.696 195.141 20.304C195.141 18.912 195.421 17.696 195.981 16.656C196.557 15.616 197.357 14.816 198.381 14.256C199.405 13.696 200.581 13.416 201.909 13.416C203.205 13.416 204.357 13.688 205.365 14.232C206.373 14.776 207.157 15.552 207.717 16.56C208.293 17.568 208.581 18.744 208.581 20.088ZM204.381 19.008C204.381 18.304 204.141 17.744 203.661 17.328C203.181 16.912 202.581 16.704 201.861 16.704C201.173 16.704 200.589 16.904 200.109 17.304C199.645 17.704 199.357 18.272 199.245 19.008H204.381Z" fill="#4F4F4F"/>
</svg>
